<?xml version="1.0" standalone="no"?>
<!DOCTYPE svg PUBLIC "-//W3C//DTD SVG 20010904//EN"
 "http://www.w3.org/TR/2001/REC-SVG-20010904/DTD/svg10.dtd">
<svg version="1.0" xmlns="http://www.w3.org/2000/svg"
 width="696.000000pt" height="696.000000pt" viewBox="0 0 696.000000 696.000000"
 preserveAspectRatio="xMidYMid meet">
<metadata>
Created by potrace 1.14, written by Peter Selinger 2001-2017
</metadata>
<g transform="translate(0.000000,696.000000) scale(0.100000,-0.100000)"
fill="#000000" stroke="none">
<path d="M720 3481 l0 -3478 424 0 424 0 0 1244 0 1244 219 215 c120 118 329
325 464 459 l245 244 22 -27 c38 -48 405 -516 457 -582 27 -36 52 -67 55 -70
4 -3 39 -48 79 -100 40 -52 85 -111 101 -130 41 -50 147 -185 205 -260 27 -36
52 -67 55 -70 3 -3 27 -34 55 -70 27 -36 55 -71 62 -78 7 -7 20 -26 30 -42 9
-17 20 -30 23 -30 4 0 22 -21 40 -47 19 -27 37 -50 40 -53 3 -3 28 -34 56 -70
43 -55 215 -276 249 -318 5 -7 17 -21 25 -30 8 -10 40 -51 71 -92 31 -41 65
-85 75 -97 36 -41 49 -58 74 -93 13 -19 27 -37 30 -40 21 -19 90 -111 90 -119
0 -6 4 -11 8 -11 4 0 41 -44 82 -97 41 -54 82 -107 91 -118 10 -11 63 -78 119
-150 56 -71 110 -140 121 -153 10 -12 19 -26 19 -31 0 -5 4 -11 9 -13 5 -1 39
-41 75 -88 36 -47 74 -94 83 -106 10 -11 29 -36 43 -54 14 -19 48 -63 76 -98
l52 -65 463 1 c255 0 483 1 506 1 47 1 48 -5 -11 64 -10 12 -32 41 -49 64 -17
24 -34 43 -39 43 -4 0 -8 4 -8 10 0 10 -10 24 -62 85 -16 18 -28 37 -28 43 0
6 -4 12 -9 14 -5 2 -68 80 -140 173 -144 186 -162 209 -206 265 -16 21 -78
100 -137 176 -60 77 -161 207 -225 290 -65 83 -129 166 -143 184 -14 18 -50
65 -81 104 -30 39 -101 130 -157 202 -55 73 -107 138 -114 146 -7 7 -17 21
-23 30 -5 9 -86 114 -180 233 -93 119 -174 224 -180 233 -5 8 -17 23 -25 32
-8 9 -26 31 -40 50 -14 18 -33 43 -42 54 -21 26 -136 174 -162 211 -11 14 -27
34 -35 44 -9 10 -27 33 -41 51 -14 19 -68 88 -120 155 -52 67 -106 137 -120
156 -14 18 -43 56 -65 84 -22 27 -52 66 -67 87 -15 20 -34 42 -41 50 -7 7 -24
29 -37 48 -13 19 -29 40 -35 46 -5 6 -21 26 -35 44 -14 18 -36 47 -50 65 -14
18 -36 47 -50 65 -14 18 -30 38 -35 44 -6 6 -47 58 -91 116 l-80 105 -1 97 0
97 454 448 c250 246 545 537 656 646 111 109 423 416 692 682 270 266 634 625
810 799 l320 315 -525 1 c-488 0 -527 -1 -541 -17 -14 -15 -212 -209 -754
-738 -209 -203 -722 -704 -835 -815 -65 -63 -249 -243 -410 -400 -161 -157
-339 -330 -395 -385 -634 -618 -780 -761 -914 -892 -86 -84 -158 -153 -161
-153 -3 0 -4 765 -3 1700 l2 1700 -425 0 -424 0 0 -3479z"/>
</g>
</svg>
