<svg width="609" height="90" viewBox="0 0 609 90" fill="none" xmlns="http://www.w3.org/2000/svg">
<g clip-path="url(#clip0)">
<path d="M10.6025 42.5773L54.2279 0H67.329L30.6593 36.1303V38.5479L68.2069 86.9007H55.5785L22.2179 44.3905L10.6025 55.8743V86.9678H0V0H10.6025V42.5773Z" fill="black"/>
<path d="M100.555 22.0945C118.518 22.0945 130.471 35.6602 130.471 55.4714C130.471 75.2826 118.586 88.9826 100.555 88.9826C82.5912 88.9826 70.6381 75.3498 70.6381 55.4714C70.6381 35.6602 82.5237 22.0945 100.555 22.0945ZM100.555 79.9164C112.44 79.9164 120.476 69.9101 120.476 55.4714C120.476 41.0327 112.44 31.1607 100.555 31.1607C88.669 31.1607 80.6328 41.0999 80.6328 55.4714C80.6328 69.8429 88.6015 79.9164 100.555 79.9164Z" fill="black"/>
<path d="M198.476 0V86.9007H189.021V74.3424H187.806C185.104 83.2743 176.528 89.1841 166.195 89.1841C149.92 89.1841 138.98 75.7527 138.98 55.2028C138.98 35.8617 149.92 22.8333 166.195 22.8333C178.013 22.8333 185.915 31.0264 187.806 37.9435H189.021V0H198.476ZM148.907 56.3444C148.907 70.8503 156.471 80.8566 167.749 80.8566C179.026 80.8566 186.59 70.8503 186.59 56.3444C186.59 41.8386 179.026 31.8994 167.749 31.8994C156.471 31.8994 148.907 41.8386 148.907 56.3444Z" fill="black"/>
<path d="M267.29 58.4934V59.0979H219.545C219.545 71.5218 228.662 79.9164 239.737 79.9164C246.288 79.9164 252.636 76.8944 255.675 69.6414L264.656 72.3277C260.267 82.4684 250.34 88.9826 238.859 88.9826C220.896 88.9826 209.416 75.3498 209.416 55.4714C209.416 35.6602 220.963 22.0945 238.319 22.0945C258.173 22.0945 267.29 35.6602 267.29 58.4934ZM219.748 50.0317H256.823C256.823 38.0778 249.799 31.1607 238.319 31.1607C228.392 31.1607 219.748 38.6822 219.748 50.0317Z" fill="black"/>
<path d="M384.592 0L361.024 86.9006H341.44L329.081 7.72301H326.65L312.806 86.9006H293.222L271.072 0H282.282L301.393 79.1776H303.825L317.128 0H338.536L350.489 79.1776H352.92L373.45 0H384.592Z" fill="black"/>
<path d="M412.078 22.0945C430.041 22.0945 441.994 35.6602 441.994 55.4714C441.994 75.2826 430.109 88.9826 412.078 88.9826C394.114 88.9826 382.161 75.3498 382.161 55.4714C382.161 35.6602 394.114 22.0945 412.078 22.0945ZM412.078 79.9164C423.963 79.9164 432 69.9101 432 55.4714C432 41.0327 423.963 31.1607 412.078 31.1607C400.192 31.1607 392.156 41.0999 392.156 55.4714C392.156 69.8429 400.192 79.9164 412.078 79.9164Z" fill="black"/>
<path d="M488.321 24.5122V33.5783H481.5C473.937 33.5783 467.656 39.018 464.347 46.8754C463.132 49.7631 462.389 54.2626 462.389 58.0234V86.9008H452.935V25.8553H462.389V37.9435H463.604C465.09 33.1082 470.628 24.5122 481.5 24.5122H488.321Z" fill="black"/>
<path d="M507.365 0V50.6361H508.581L535.323 25.8553H548.087L524.991 47.144V48.3528L554.164 86.9007H543.089L517.967 53.9268L507.365 63.7316V86.9678H497.911V0H507.365Z" fill="black"/>
<path d="M583.338 79.9164C593.198 80.2522 598.398 76.6258 599.005 71.1861C599.748 64.8062 592.792 62.1199 581.987 58.9636C571.317 55.8744 559.837 51.0391 561.188 37.8092C562.133 28.0043 571.047 21.6244 584.756 22.0945C596.169 22.4303 607.379 30.8249 608.122 42.9131L599.748 44.4577C598.803 35.5259 591.509 31.1607 583.946 31.1607C575.775 31.1607 571.52 33.7126 570.845 38.5479C569.899 45.3308 577.058 47.8827 587.12 50.9048C597.722 54.0611 609.878 59.5008 609 71.1189C608.122 83.4757 598.33 88.9826 583.135 88.9826C568.684 88.9826 558.824 80.6552 557.609 67.6939L566.995 65.0077C567.671 73.4694 574.356 79.5135 583.338 79.9164Z" fill="black"/>
</g>
<defs>
<clipPath id="clip0">
<rect width="609" height="89.1841" fill="white"/>
</clipPath>
</defs>
</svg>
