<svg width="575" height="1427" viewBox="0 0 575 1427" fill="none" xmlns="http://www.w3.org/2000/svg">
<path d="M96.8774 239.753L187.144 290.262M284.288 345.236L376.274 401.082L469.979 405.605L192.302 459.884L574 458.376L188.863 515.67L90 569.195H187.144L279.989 626.49H377.993L376.274 682.276H475.137L188.004 739.57L380.572 737.309L187.144 793.849" stroke="black" stroke-width="2"/>
<path d="M185.425 202L286.87 346.744M329.851 249.333L198.105 346.744" stroke="black" stroke-width="2"/>
<path d="M283.428 346.803L193.161 458.376" stroke="black" stroke-width="2"/>
<path d="M185.425 346.803L283.428 456.868" stroke="black" stroke-width="13"/>
<path d="M270.004 623.044L377.993 624.228" stroke="#B7FF9F" stroke-width="13"/>
<path d="M1 1082.56L499.752 1078.43" stroke="black" stroke-width="6"/>
<path d="M1 1082.56L499.752 1078.43" stroke="black" stroke-width="6"/>
<path d="M295.92 1287H397.42" stroke="black" stroke-width="6"/>
<path d="M196.311 803H296.384V879.324H386.801L97.9934 941.208H493.02M97.9935 1081.5L97.9934 1147.49L216.311 1180.72L296.384 1220.72V1289.82H397.335L86.5815 1356.86L500.92 1359.96L196.311 1427" stroke="black" stroke-width="2"/>
<path d="M492.92 941L304.92 1030.64V1077" stroke="black" stroke-width="2"/>
<path d="M498.92 1080.5L296.036 1221.79" stroke="black" stroke-width="2"/>
<path d="M296.422 832.833L451.088 829.328" stroke="black" stroke-width="2"/>
<path d="M452.92 831L293.42 954.5" stroke="black" stroke-width="6"/>
<path d="M295.137 954.222L111.486 950.611" stroke="black" stroke-width="2"/>
<path d="M110.92 952.5L295.92 1079.5" stroke="black" stroke-width="6"/>
<line x1="96" y1="202.038" x2="96" y2="242.747" stroke="#B7FF9F" stroke-width="12"/>
<line x1="91.0605" y1="34.8035" x2="519.26" y2="111.699" stroke="#B7FF9F" stroke-width="12"/>
<line x1="91.2403" y1="236.876" x2="519.44" y2="327.341" stroke="#B7FF9F" stroke-width="12"/>
<line x1="91.955" y1="214.225" x2="520.155" y2="137.33" stroke="#B7FF9F" stroke-width="12"/>
<line x1="96" y1="-0.000120759" x2="96" y2="40.709" stroke="#B7FF9F" stroke-width="12"/>
<line x1="509.122" y1="101.019" x2="509.122" y2="143.236" stroke="#B7FF9F" stroke-width="12"/>
</svg>
